<svg width="25" height="24" viewBox="0 0 25 24" fill="none" xmlns="http://www.w3.org/2000/svg">
<g clip-path="url(#clip0_261_9840)">
<path d="M22.1499 0.562587H2.6499C2.20746 0.558084 1.7813 0.729282 1.46494 1.03862C1.14857 1.34795 0.967842 1.77016 0.962402 2.21259V21.7913C0.968826 22.2331 1.14999 22.6544 1.46625 22.9629C1.7825 23.2714 2.2081 23.4421 2.6499 23.4376H22.1499C22.5924 23.4411 23.0182 23.2693 23.3344 22.9598C23.6506 22.6503 23.8315 22.2282 23.8374 21.7857V2.20696C23.8295 1.76583 23.6478 1.34564 23.3318 1.03772C23.0158 0.729808 22.5911 0.559058 22.1499 0.562587Z" fill="#0076B2"/>
<path d="M4.34861 9.13672H7.74424V20.0623H4.34861V9.13672ZM6.04736 3.69922C6.43683 3.69922 6.81754 3.81473 7.14134 4.03114C7.46514 4.24756 7.71748 4.55514 7.86643 4.91499C8.01539 5.27485 8.05426 5.67079 7.97815 6.05274C7.90203 6.43469 7.71434 6.78549 7.43882 7.06075C7.16329 7.33601 6.81232 7.52337 6.4303 7.59912C6.04827 7.67487 5.65237 7.63561 5.29266 7.48632C4.93295 7.33702 4.6256 7.08439 4.4095 6.76038C4.19339 6.43638 4.07824 6.05556 4.07861 5.66609C4.07911 5.14427 4.28675 4.644 4.65591 4.27519C5.02507 3.90638 5.52554 3.69922 6.04736 3.69922ZM9.87424 9.13672H13.1292V10.6367H13.1742C13.628 9.77797 14.7342 8.87234 16.3861 8.87234C19.8249 8.86484 20.4624 11.128 20.4624 14.0623V20.0623H17.0667V14.7467C17.0667 13.4811 17.0442 11.8517 15.3024 11.8517C13.5605 11.8517 13.2642 13.2317 13.2642 14.6642V20.0623H9.87424V9.13672Z" fill="white"/>
</g>
<defs>
<clipPath id="clip0_261_9840">
<rect width="24" height="24" fill="white" transform="translate(0.399902)"/>
</clipPath>
</defs>
</svg>
