<svg width="34" height="34" viewBox="0 0 34 34" fill="none" xmlns="http://www.w3.org/2000/svg">
<rect x="0.5" y="0.5" width="33" height="33" rx="3.6" fill="white"/>
<path fill-rule="evenodd" clip-rule="evenodd" d="M25.0744 17.1875C25.0744 16.6025 25.0219 16.04 24.9244 15.5H17.1544V18.6913H21.5944C21.4032 19.7225 20.8219 20.5963 19.9482 21.1813V23.2513H22.6144C24.1744 21.815 25.0744 19.7 25.0744 17.1875Z" fill="#0063F7"/>
<path fill-rule="evenodd" clip-rule="evenodd" d="M17.1544 25.2499C19.3819 25.2499 21.2494 24.5111 22.6144 23.2511L19.9481 21.1811C19.2094 21.6761 18.2644 21.9686 17.1544 21.9686C15.0056 21.9686 13.1869 20.5174 12.5381 18.5674H9.78186V20.7049C11.1394 23.4011 13.9294 25.2499 17.1544 25.2499Z" fill="#34A853"/>
<path fill-rule="evenodd" clip-rule="evenodd" d="M12.5382 18.5674C12.3732 18.0724 12.2794 17.5437 12.2794 16.9999C12.2794 16.4562 12.3732 15.9274 12.5382 15.4324V13.2949H9.78192C9.22317 14.4087 8.90442 15.6687 8.90442 16.9999C8.90442 18.3312 9.22317 19.5912 9.78192 20.7049L12.5382 18.5674Z" fill="#FFCC00"/>
<path fill-rule="evenodd" clip-rule="evenodd" d="M17.1544 12.0313C18.3656 12.0313 19.4531 12.4475 20.3081 13.265L22.6744 10.8988C21.2456 9.5675 19.3781 8.75 17.1544 8.75C13.9294 8.75 11.1394 10.5988 9.78186 13.295L12.5381 15.4325C13.1869 13.4825 15.0056 12.0313 17.1544 12.0313Z" fill="#FF2E2E"/>
</svg>
