<svg width="108" height="108" viewBox="0 0 108 108" fill="none" xmlns="http://www.w3.org/2000/svg">
<g clip-path="url(#clip0_128_12637)">
<path d="M24.603 23.5896V6.65876C24.603 5.99461 25.1414 5.45605 25.8057 5.45605H82.1943C82.8585 5.45605 83.397 5.9944 83.397 6.65876V23.5898H24.603V23.5896Z" fill="white"/>
<path d="M25.1052 5.68408C24.8022 5.90226 24.603 6.25607 24.603 6.65816V16.9442H42.6706L25.1052 5.68408Z" fill="white"/>
<path d="M82.8949 5.68408L65.3296 16.9442H83.3971V6.65837C83.3969 6.25628 83.1978 5.90247 82.8949 5.68408Z" fill="white"/>
<path d="M20.0981 39.3581V18.3109C20.0981 17.4317 20.8106 16.7192 21.6898 16.7192H86.3109C87.1899 16.7192 87.9025 17.4317 87.9025 18.3109V39.3581H20.0981Z" fill="white"/>
<path d="M20.6973 17.0674C20.3324 17.3591 20.0981 17.8072 20.0981 18.3106V32.7126H40.8129L20.6973 17.0674Z" fill="white"/>
<path d="M87.3031 17.0674L67.1875 32.7126H87.9022V18.3106C87.9022 17.8072 87.6678 17.3589 87.3031 17.0674Z" fill="white"/>
<path d="M92.528 32.4873H15.4717C14.2943 32.4873 13.3398 33.4417 13.3398 34.6192V55.0135V64.2494V84.6438C13.3398 85.8212 14.2943 86.7756 15.4717 86.7756H92.528C93.7054 86.7756 94.6598 85.8212 94.6598 84.6438V64.2494V55.0135V34.6192C94.6598 33.4417 93.7054 32.4873 92.528 32.4873Z" fill="white"/>
<path d="M94.6598 37.2705V34.6192C94.6598 33.4417 93.7054 32.4873 92.528 32.4873H15.4717C14.2943 32.4873 13.3398 33.4417 13.3398 34.6192V37.7378L13.9867 37.848L52.5547 63.5599C53.4299 64.1434 54.5702 64.1434 55.4454 63.5599L94.0135 37.848L94.6598 37.2705Z" fill="white"/>
<path d="M76.9263 61.1509C75.3547 61.1509 73.8172 62.2012 73.8172 63.6271C73.8174 88.6346 34.1831 88.6353 34.1829 63.6276C34.1829 62.2014 32.6454 61.1509 31.0738 61.1509H13.3398V67.4927V86.3878C13.3398 87.3485 14.2943 88.1276 15.4717 88.1276H92.528C93.7054 88.1276 94.6598 87.3488 94.6598 86.3878V67.4927V61.1509H76.9263Z" fill="white"/>
<path d="M31.5518 67.0886C31.6394 67.7609 31.7601 68.4422 31.9108 69.113L32.5668 72.0367L50.1738 56.9449L14.1635 32.9385C13.6629 33.3287 13.3398 33.9355 13.3398 34.6191V55.0135V64.2494H28.2879C29.9382 64.2494 31.3411 65.4696 31.5518 67.0886Z" fill="white"/>
<path d="M31.5518 67.0886C31.6394 67.7609 31.7601 68.4422 31.9108 69.113L32.5668 72.0367L50.1738 56.9449L14.1635 32.9385C13.6629 33.3287 13.3398 33.9355 13.3398 34.6191V55.0135V64.2494H28.2879C29.9382 64.2494 31.3411 65.4696 31.5518 67.0886Z" fill="white"/>
<path d="M46.8745 59.7743L50.174 56.9463L14.1637 32.9395C13.9766 33.0851 13.8147 33.2613 13.6847 33.4602C13.6824 33.4636 13.6805 33.4676 13.6782 33.4709C13.6404 33.5296 13.6057 33.5904 13.5737 33.6529C13.5655 33.6686 13.5584 33.6849 13.5505 33.701C13.526 33.7524 13.5033 33.8049 13.4828 33.8581C13.4744 33.8801 13.4663 33.902 13.4588 33.9244C13.4414 33.9741 13.4264 34.0253 13.4128 34.0767C13.4063 34.1016 13.3992 34.1259 13.3936 34.1511C13.3816 34.2042 13.3727 34.2584 13.3647 34.3129C13.3614 34.3363 13.3566 34.3595 13.3538 34.3831C13.3451 34.4611 13.3398 34.5401 13.3398 34.6205V37.7392L13.9866 37.8493L46.8745 59.7743Z" fill="white"/>
<path d="M34.1835 63.6276C34.1835 62.2015 32.646 61.151 31.0744 61.151H29.12C27.8673 61.151 26.8519 60.1355 26.8519 58.8828V55.0139V41.3969L14.1644 32.9385C13.6639 33.3287 13.3408 33.9355 13.3408 34.6191V55.0137V61.151V64.2494H26.8519H28.2888C29.939 64.2494 31.3421 65.4696 31.5526 67.0886C31.6401 67.7609 31.7609 68.4422 31.9116 69.1131L32.5676 72.0367L35.1162 69.8522C34.5153 67.9858 34.1835 65.9116 34.1835 63.6276Z" fill="white"/>
<path d="M93.8365 32.9385L57.8262 56.9451L75.4331 72.0369L76.0891 69.113C76.2398 68.442 76.3606 67.7609 76.4483 67.088C76.6588 65.4696 78.0617 64.2493 79.7116 64.2493H94.6599V55.0135V34.6191C94.6601 33.9355 94.337 33.3287 93.8365 32.9385Z" fill="white"/>
<path d="M94.6461 34.3817C94.6434 34.358 94.6388 34.3348 94.6352 34.3114C94.6273 34.2569 94.6183 34.2028 94.6064 34.1497C94.6007 34.1246 94.5938 34.1001 94.5871 34.0753C94.5736 34.0237 94.5585 33.9729 94.5412 33.9229C94.5334 33.9006 94.5255 33.8786 94.5171 33.8567C94.4967 33.8034 94.4739 33.7507 94.4494 33.6995C94.4417 33.6834 94.4344 33.6673 94.4262 33.6515C94.3943 33.589 94.3596 33.528 94.3217 33.4694C94.3194 33.4659 94.3173 33.4623 94.3153 33.4588C94.1855 33.2598 94.0233 33.0837 93.8363 32.938L57.8262 56.9448L61.1256 59.7728L94.0131 37.8477L94.6599 37.2698V34.6184C94.6601 34.5386 94.6549 34.4598 94.6461 34.3817Z" fill="white"/>
<path d="M73.8172 63.6269C73.8172 65.9109 73.4853 67.9855 72.8843 69.8523L75.4328 72.0369L76.0888 69.113C76.2395 68.4419 76.3603 67.7608 76.4481 67.0879C76.6585 65.4695 78.0614 64.2493 79.7114 64.2493H94.6596V61.1509H76.926C75.3543 61.1507 73.8172 62.201 73.8172 63.6269Z" fill="white"/>
<path d="M6.23364 102.544C3.9415 102.544 2.07715 100.68 2.07715 98.3877V68.1809C2.07715 65.8888 3.94171 64.0244 6.23364 64.0244H28.2882C30.051 64.0244 31.5498 65.3291 31.7751 67.0597C33.2221 78.1712 42.7769 86.5508 54.0002 86.5508C65.2237 86.5508 74.7782 78.1712 76.2252 67.0593C76.4503 65.3293 77.9491 64.0246 79.7121 64.0246H101.767C104.059 64.0246 105.923 65.8892 105.923 68.1811V98.3881C105.923 100.68 104.059 102.545 101.767 102.545H6.23364V102.544Z" fill="#009254"/>
<path d="M25.4976 99.1651C22.4479 99.1651 19.976 96.693 19.976 93.6435V64.8016C19.976 64.5355 20.0036 64.2762 20.0515 64.0239H6.23364C3.93795 64.0239 2.07715 65.8847 2.07715 68.1804V98.3872C2.07715 100.683 3.93795 102.544 6.23364 102.544H101.767C103.793 102.544 105.483 101.086 105.848 99.1649H25.4976V99.1651Z" fill="#009254"/>
<path d="M87.9022 29.334H71.5319L67.1875 32.7129H87.9022V29.334Z" fill="white"/>
<path d="M55.4451 58.8035L94.0131 33.0915C93.629 32.7182 93.1057 32.4873 92.5279 32.4873H15.4716C14.8937 32.4873 14.3704 32.7182 13.9863 33.0915L52.5544 58.8035C53.4296 59.3869 54.5698 59.3869 55.4451 58.8035Z" fill="#009254"/>
<path d="M36.4685 29.3337H30.6151C29.0163 29.3337 27.7204 28.0378 27.7204 26.4391V22.5294L20.6973 17.0674C20.3324 17.3591 20.0981 17.8072 20.0981 18.3106V29.3337V32.7126H27.7202H40.8129L36.4685 29.3337Z" fill="white"/>
<path d="M20.5298 17.2231L40.4456 32.7128H67.5546L87.4704 17.2231C87.1801 16.9136 86.7684 16.7192 86.3108 16.7192H21.6896C21.2318 16.719 20.8205 16.9136 20.5298 17.2231Z" fill="#009254"/>
<path d="M36.1011 29.334L40.4454 32.7129H67.5545L71.8988 29.334H36.1011Z" fill="#009254"/>
<path d="M38.2891 14.1352H32.3169C31.8195 14.1352 31.4164 13.7321 31.4164 13.2347V9.7296L25.1057 5.68408C24.8027 5.90226 24.6035 6.25607 24.6035 6.65816V14.1354V16.9442H31.4164H42.6711L38.2891 14.1352Z" fill="white"/>
<path d="M83.3969 14.1353H69.7112L65.3296 16.944H83.3969V14.1353Z" fill="white"/>
<path d="M24.9297 5.83905L42.2537 16.9441H65.7471L83.0706 5.83905C82.851 5.60436 82.541 5.45557 82.1943 5.45557H25.806C25.4593 5.45578 25.1493 5.60436 24.9297 5.83905Z" fill="#009254"/>
<path d="M37.8716 14.1353L42.2534 16.944H65.7466L70.1283 14.1353H37.8716Z" fill="#009254"/>
<path d="M101.767 62.4472H96.2368V32.5998C96.2368 31.6667 95.4807 30.9104 94.5474 30.9104H89.4789V16.8313C89.4789 15.8982 88.7228 15.1419 87.7894 15.1419H84.9736V5.56834C84.9736 4.63522 84.2175 3.87891 83.2841 3.87891H24.7159C23.7825 3.87891 23.0264 4.63543 23.0264 5.56834V15.1421H20.2106C19.2772 15.1421 18.5211 15.8986 18.5211 16.8315V30.9104H13.4526C12.5193 30.9104 11.7632 31.6669 11.7632 32.5998V62.4472H6.23349C3.07197 62.4472 0.5 65.0189 0.5 68.1807V98.3877C0.5 101.549 3.07197 104.121 6.23349 104.121H101.767C104.928 104.121 107.5 101.549 107.5 98.3873V68.1807C107.5 65.0189 104.928 62.4472 101.767 62.4472ZM86.1 20.2856V30.9104H72.4397L86.1 20.2856ZM77.5178 7.25777L65.2185 15.1419H42.7815L30.4822 7.25777H77.5178ZM81.5947 8.65796V15.1419H71.4799L81.5947 8.65796ZM26.4053 8.65796L36.5201 15.1419H26.4053V8.65796ZM42.2816 18.521L42.2848 18.5212L42.2883 18.521H65.7117L65.7152 18.5212L65.7184 18.521H82.8655L66.9363 30.9104H41.0639L25.1347 18.521H42.2816ZM21.9 20.2859L35.5603 30.9104H21.9V20.2859ZM40.4816 34.2893H40.4829H40.485H67.5148H67.5169H67.5182H88.9675L76.5216 42.5864C75.6414 43.1732 75.5208 44.4192 76.2706 45.1652C76.2788 45.1734 76.2869 45.1815 76.2949 45.1895C76.8585 45.7502 77.74 45.8348 78.4012 45.3939L92.8575 35.7568V62.4472H79.7116C77.159 62.4472 74.9879 64.3423 74.661 66.8553C74.5789 67.4862 74.4677 68.1075 74.3306 68.7184L60.805 57.125L70.6026 50.5932C71.482 50.0068 71.6038 48.7621 70.8548 48.0162L70.8306 47.992C70.2665 47.4304 69.3848 47.3441 68.7227 47.7857L54 57.6008L19.0325 34.2893H40.4816ZM73.2121 72.2072C70.0306 79.759 62.5358 84.9736 54 84.9736C45.4642 84.9736 37.9692 79.759 34.7874 72.2072C34.8 72.1969 34.8134 72.188 34.8255 72.1775L50.115 59.0721L53.0625 61.037C53.3463 61.2261 53.6729 61.3208 53.9996 61.3208C54.3262 61.3208 54.6529 61.2261 54.9367 61.037L57.8842 59.0721L73.1737 72.1775C73.1866 72.1877 73.1996 72.1967 73.2121 72.2072ZM15.1421 35.7568L47.1948 57.1252L33.6692 68.7186C33.5323 68.1077 33.4209 67.4866 33.3388 66.8557C33.0119 64.3425 30.8406 62.4474 28.2882 62.4474H15.1421V35.7568ZM104.121 98.3875C104.121 99.6857 103.065 100.742 101.767 100.742H6.23349C4.93507 100.742 3.87907 99.6859 3.87907 98.3875V68.1807C3.87907 66.8823 4.93507 65.8263 6.23349 65.8263H28.288C29.1482 65.8263 29.879 66.4561 29.9879 67.2917C31.5515 79.2984 41.8741 88.3527 54 88.3527C66.1259 88.3527 76.4487 79.2982 78.0121 67.2912C78.1208 66.4559 78.8516 65.826 79.712 65.826H101.767C103.065 65.826 104.121 66.882 104.121 68.1805L104.121 98.3875Z" fill="black"/>
</g>
<defs>
<clipPath id="clip0_128_12637">
<rect width="107" height="107" fill="white" transform="translate(0.5 0.5)"/>
</clipPath>
</defs>
</svg>
