<svg width="30" height="24" viewBox="0 0 30 24" fill="none" xmlns="http://www.w3.org/2000/svg">
<g clip-path="url(#clip0_261_9838)">
<path d="M29.3986 2.92282C28.2978 3.41049 27.1302 3.73059 25.9346 3.87249C27.1799 3.12608 28.1361 1.9441 28.5864 0.535798C27.4025 1.23833 26.1073 1.7333 24.7566 1.99934C23.6564 0.827243 22.089 0.0947266 20.3543 0.0947266C17.0234 0.0947266 14.3229 2.79513 14.3229 6.12573C14.3229 6.5985 14.3763 7.05874 14.4791 7.50028C9.46665 7.24868 5.02263 4.84764 2.0479 1.19873C1.52885 2.08948 1.23144 3.12562 1.23144 4.23076C1.23144 6.32324 2.29628 8.16918 3.9145 9.25078C2.95674 9.22079 2.02005 8.96211 1.18263 8.49633C1.18229 8.5216 1.18229 8.54686 1.18229 8.57224C1.18229 11.4944 3.26122 13.932 6.02018 14.4861C5.13205 14.7277 4.20046 14.763 3.29658 14.5895C4.06401 16.9856 6.29142 18.7292 8.9305 18.778C6.86638 20.3955 4.26577 21.3598 1.4402 21.3598C0.953312 21.3598 0.473312 21.3312 0.00146484 21.2755C2.67052 22.9867 5.8407 23.9852 9.24663 23.9852C20.3403 23.9852 26.4065 14.795 26.4065 6.82518C26.4065 6.56359 26.4008 6.30349 26.3891 6.04489C27.5698 5.19132 28.5889 4.13409 29.3986 2.92282Z" fill="#55ACEE"/>
</g>
<defs>
<clipPath id="clip0_261_9838">
<rect width="29.4" height="24" fill="white"/>
</clipPath>
</defs>
</svg>
